<?xml version="1.0" encoding="UTF-8" standalone="no"?>
<!-- Created with Inkscape (http://www.inkscape.org/) -->

<svg
   xmlns:dc="http://purl.org/dc/elements/1.1/"
   xmlns:cc="http://creativecommons.org/ns#"
   xmlns:rdf="http://www.w3.org/1999/02/22-rdf-syntax-ns#"
   xmlns:svg="http://www.w3.org/2000/svg"
   xmlns="http://www.w3.org/2000/svg"
   xmlns:sodipodi="http://sodipodi.sourceforge.net/DTD/sodipodi-0.dtd"
   xmlns:inkscape="http://www.inkscape.org/namespaces/inkscape"
   version="1.1"
   id="svg64"
   width="186.66667"
   height="186.66667"
   viewBox="0 0 186.66667 186.66667"
   sodipodi:docname="0x33AF7644B1F60c8e8d62689b19d60a5d132164fC.png.svg"
   inkscape:export-filename="/home/gaston/Escritorio/path86.png"
   inkscape:export-xdpi="96"
   inkscape:export-ydpi="96"
   inkscape:version="0.92.5 (2060ec1f9f, 2020-04-08)">
  <metadata
     id="metadata70">
    <rdf:RDF>
      <cc:Work
         rdf:about="">
        <dc:format>image/svg+xml</dc:format>
        <dc:type
           rdf:resource="http://purl.org/dc/dcmitype/StillImage" />
        <dc:title></dc:title>
      </cc:Work>
    </rdf:RDF>
  </metadata>
  <defs
     id="defs68" />
  <sodipodi:namedview
     pagecolor="#ffffff"
     bordercolor="#666666"
     borderopacity="1"
     objecttolerance="10"
     gridtolerance="10"
     guidetolerance="10"
     inkscape:pageopacity="0"
     inkscape:pageshadow="2"
     inkscape:window-width="1366"
     inkscape:window-height="719"
     id="namedview66"
     showgrid="false"
     inkscape:zoom="2.8446428"
     inkscape:cx="93.333336"
     inkscape:cy="93.333336"
     inkscape:window-x="0"
     inkscape:window-y="0"
     inkscape:window-maximized="1"
     inkscape:current-layer="svg64" />
  <path
     inkscape:connector-curvature="0"
     id="path94"
     d="M 77.333335,177.20399 C 72.991312,176.52252 64.289317,173.18858 56.000001,169.03067 24.209198,153.08448 7.6607705,126.35258 7.7865071,91.147832 7.8571452,71.369985 12.884584,57.092158 24.459291,43.797461 c 2.77608,-3.188603 6.95841,-8.455779 9.294064,-11.704835 7.652587,-10.645274 25.946615,-21.001388 42.717121,-24.1818496 9.983783,-1.8933854 28.702554,-1.4872228 37.539614,0.81454 11.37125,2.9618326 30.48153,13.4658866 39.45638,21.6873886 8.12525,7.443212 16.12948,19.070833 20.82623,30.253963 9.401,22.384136 6.86116,55.980992 -5.59032,73.948482 -4.72034,6.81144 -6.42576,7.27795 -12.22334,3.34361 -6.12637,-4.15746 -7.62493,-4.12754 -10.46633,0.20896 -2.64125,4.03107 -1.95509,4.83236 6.32063,7.38114 2.75,0.84694 5,2.38389 5,3.41542 0,4.00588 -13.25019,14.74167 -25.58423,20.72927 -17.23381,8.36621 -34.116443,10.69635 -54.415775,7.51044 z M 138.3454,158.66667 c 0.18998,-1.83333 -0.2234,-4.20948 -0.9186,-5.28032 -1.0832,-1.66849 -1.65708,-1.59125 -4.01206,0.53999 -4.51624,4.08713 -3.38704,9.21486 1.86373,8.46324 1.79083,-0.25635 2.83965,-1.52951 3.06693,-3.72291 z M 88.633272,143 c -0.541952,-1.28333 -2.117848,-6.41477 -3.501993,-11.40319 -2.805106,-10.10953 -7.160199,-20.07434 -9.691634,-22.17524 -1.168716,-0.96995 -3.309594,-0.73438 -7.194437,0.79163 -5.392531,2.11824 -5.72678,2.08445 -13.38797,-1.35369 -9.300265,-4.17371 -16.09218,-4.66797 -16.391637,-1.19284 -0.855546,9.92841 3.969469,19.5445 12.884367,25.67811 6.713388,4.61893 13.635896,7.33652 25.3167,9.93864 11.504476,2.56285 13.1521,2.52382 11.966604,-0.28342 z m 29.286758,-1.23377 c 19.44691,-4.83848 32.74664,-17.19392 32.74664,-30.42162 0,-6.49418 -2.47027,-7.06055 -12.40428,-2.84398 -10.15229,4.30922 -10.40468,4.30978 -17.69163,0.0393 -3.24725,-1.90301 -5.90409,-2.98988 -5.90409,-2.41525 0,0.57463 -1.22337,-0.26836 -2.71861,-1.8733 C 108.34055,100.3792 104,100.37701 104,104.2474 c 0,3.63505 -4.966982,9.08594 -8.279328,9.08594 -4.112845,0 -9.054004,-4.04286 -9.054004,-7.408 0,-4.25169 -1.38139,-4.75592 -6.387291,-2.33149 C 75.884913,105.72215 74.603123,108 77.799951,108 c 0.98997,0 4.284776,1.8 7.321788,4 7.745447,5.61078 13.475519,5.40849 20.645591,-0.72882 3.03851,-2.60085 5.71923,-4.14484 5.95715,-3.43107 0.23792,0.71376 -1.40275,6.77587 -3.64595,13.47135 C 105.83534,128.00694 104,134.27 104,135.22939 c 0,0.95937 -1.18034,3.24489 -2.62299,5.07892 -4.448176,5.65493 -1.404019,5.92321 16.54302,1.45792 z M 32.299647,113 c -0.353233,-3.85 -0.768341,-7.15318 -0.922464,-7.34041 -0.79777,-0.96911 -11.356803,5.93146 -11.366184,7.42807 C 19.98321,117.52039 22.795655,120 27.851188,120 h 5.090699 z M 159.41742,95.863956 c 0.49946,-0.808157 2.93488,-2.316209 5.41202,-3.351226 7.22846,-3.02024 5.75843,-9.400731 -2.46897,-10.716347 -4.24455,-0.678731 -5.9076,-1.802911 -8.05744,-5.446612 l -2.70897,-4.591356 -1.8226,4.3347 c -1.68756,4.01353 -1.52954,4.96099 2.13292,12.78746 3.86736,8.264359 5.68004,9.949245 7.51304,6.983381 z M 87.9469,76.730652 c 3.398795,-4.095297 -3.785842,-12.474503 -9.217835,-10.750455 -4.259357,1.351867 -4.32027,4.633727 -0.163162,8.790834 4.317141,4.317141 6.965325,4.870328 9.380997,1.959621 z m 24.53996,-0.827424 c 4.28471,-3.370353 4.70262,-8.679335 0.78119,-9.923947 -5.64356,-1.791199 -12.74654,6.496064 -9.21495,10.751371 2.19046,2.639332 4.28812,2.433533 8.43376,-0.827424 z m 44.33005,-12.864094 c -0.56921,-0.569217 -1.88588,0.1288 -2.92592,1.551136 -2.93721,4.016886 -2.22667,5.671333 1.03493,2.409731 1.60927,-1.609258 2.46022,-3.391649 1.89099,-3.960867 z M 34.244153,58.416668 c -0.425635,-1.063644 -0.741578,-0.747702 -0.805556,0.805556 -0.05789,1.405554 0.257237,2.193054 0.700293,1.75 0.443055,-0.443056 0.490424,-1.593056 0.105267,-2.555556 z"
     style="fill:#a3a3a6;stroke-width:1.33333337" />
  <path
     inkscape:connector-curvature="0"
     id="path92"
     d="m 84.644023,175.96336 c -0.465681,-0.75349 0.278529,-3.30349 1.653799,-5.66666 2.062612,-3.54427 3.432781,-4.36612 7.824282,-4.69315 4.953367,-0.36888 5.483766,-0.0609 7.622936,4.42489 1.26454,2.65176 1.9538,5.38016 1.5317,6.06314 -1.04734,1.69462 -17.576432,1.58089 -18.632717,-0.12827 z m -20.977355,-4.17682 c -4.175247,-1.84139 -6.333334,-3.61094 -6.333334,-5.19308 0,-2.51402 5.882068,-7.92679 8.614061,-7.92679 2.005405,0 7.38594,-5.64764 7.38594,-7.7526 0,-2.93988 -4.89442,-1.6046 -6.424062,1.7526 -1.975705,4.3362 -4.237756,4.20935 -8.740157,-0.49015 -3.53112,-3.68569 -3.564134,-3.84937 -0.916122,-4.54184 4.010899,-1.04888 3.358099,-3.63357 -0.91966,-3.6413 -4.093566,-0.007 -8.869338,-3.66778 -13.908365,-10.66004 C 35.082814,123.1452 34.108299,120.01996 33.901861,106 L 33.705533,92.666668 29.852767,92.230739 c -3.109883,-0.351875 -3.531403,-0.10764 -2.1861,1.266667 0.916667,0.936428 1.666667,3.609129 1.666667,5.939336 0,4.242498 -1.793884,6.556048 -7.142203,9.211248 -3.329907,1.65314 -4.314631,6.05088 -2.22794,9.9499 1.034699,1.93335 2.790652,2.73545 5.988483,2.73545 8.033172,0 11.657569,7.59037 6.048327,12.66666 -5.767255,5.2193 -1.044927,12.15047 7.221713,10.59964 6.816768,-1.27884 13.121082,1.46878 12.029631,5.24288 -2.303631,7.96568 -3.935427,11.49082 -5.319144,11.49082 -3.015818,0 -12.644306,-8.10758 -18.521782,-15.5961 C 14.899267,129.79675 9.0060646,112.53053 9.0216195,91.860771 9.0347463,74.417691 14.790696,55.779582 22.244206,49.045252 c 2.397001,-2.165718 2.758768,-2.150442 6.764608,0.285656 l 4.232175,2.573738 -2.24686,6.062338 -2.24686,6.062336 4.428924,4.318675 4.428924,4.318673 L 36.672029,56.10623 C 36.15883,46.99799 35.105343,38.531243 34.330947,37.291238 33.283994,35.614799 33.463147,34.265449 35.029615,32.029003 38.924279,26.468592 52.581698,17.360582 63.333334,13.153507 72.427571,9.594967 76.260371,8.883 89.333335,8.323842 106.6946,7.5812644 117.62825,9.6323922 127.95209,15.568635 c 3.32635,1.912661 9.03533,4.95988 12.68661,6.771596 14.91324,7.39975 30.91044,29.582631 35.87361,49.744956 2.70931,11.00628 2.77331,30.251963 0.13513,40.634683 -2.68813,10.57927 -8.78414,22.47488 -11.81676,23.05892 -2.79962,0.53915 -10.16401,-5.96193 -10.16401,-8.97252 0,-2.42182 -11.62887,8.59059 -12.72783,12.05311 -0.40309,1.27002 -2.30796,2.49621 -4.23304,2.72488 -3.77944,0.44892 -5.96562,3.74908 -2.48357,3.74908 3.23381,0 2.53083,2.07644 -1.99119,5.88148 -5.10037,4.29166 -6.23139,4.30813 -8.14031,0.11853 -0.83532,-1.83333 -2.28705,-3.33333 -3.22606,-3.33333 -3.69901,0 -3.29182,3.13685 1.01082,7.78702 2.48324,2.6838 5.94792,6.5203 7.69931,8.52552 l 3.18432,3.6459 -7.73928,3.42268 c -4.25661,1.88248 -8.55242,3.11065 -9.54623,2.72929 -1.10099,-0.42251 -1.80694,-2.76389 -1.80694,-5.99297 0,-3.95767 0.75963,-5.85446 3,-7.49096 2.97927,-2.17626 2.97082,-2.18543 -1.22157,-1.32755 -3.66969,0.75091 -4.45406,0.39323 -6,-2.73607 -2.35187,-4.76068 -4.50913,-4.15788 -4.18758,1.17014 L 106.51503,162 98.639324,161.55068 c -7.272485,-0.4149 -8.289613,-0.10853 -13.279741,4 -3.512692,2.89212 -5.20662,5.26596 -4.839968,6.78266 0.469754,1.9432 -0.362531,2.32606 -4.977774,2.28985 -3.048012,-0.0239 -8.39184,-1.30041 -11.875173,-2.83665 z M 85.10198,163 c 0.657691,-1.28333 1.590232,-3.98333 2.072315,-6 0.730716,-3.05676 0.439147,-3.66666 -1.752885,-3.66666 -1.90267,0 -3.013179,1.38193 -4.017967,5 -0.763714,2.75 -1.391916,5.45 -1.396006,6 -0.01472,1.97969 3.925098,0.94857 5.094543,-1.33334 z m 28.63482,-18.50738 c 18.3304,-4.15266 30.36207,-11.56554 35.67508,-21.97993 4.5388,-8.89678 3.43714,-15.91151 -5.859,-37.306251 -1.8846,-4.337355 -1.88592,-5.415958 -0.0139,-11.333334 1.17457,-3.712768 2.37426,-13.888505 2.77528,-23.539771 0.67185,-16.169764 0.58022,-17 -1.87624,-17 -3.659,0 -14.65744,7.167128 -22.09328,14.397075 -6.12478,5.955193 -6.45982,6.097015 -10.74381,4.547901 -8.51447,-3.078872 -20.128034,-3.44645 -30.644271,-0.969917 l -9.9108,2.333956 -5.871815,-5.871813 C 57.402221,39.998711 47.151698,33.042606 44.295051,33.601843 c -2.024636,0.396359 -2.294966,2.410038 -2.294333,17.090394 5.29e-4,12.301144 0.607196,18.439394 2.326196,23.536472 l 2.325479,6.895375 -3.955054,8.362956 c -8.806486,18.62131 -8.276278,28.75497 2.084012,39.83096 13.405467,14.33154 43.471267,20.94794 68.955449,15.17462 z M 89.652332,141 c -1.286722,-1.59938 -4.318997,-13.91845 -4.318997,-17.54657 0,-2.02379 10.5954,-3.63133 16.454625,-2.49651 3.05194,0.59111 3.65272,1.28186 3.09194,3.55504 -3.00033,12.16223 -3.86009,14.92591 -5.112976,16.43555 -1.823061,2.19665 -8.362282,2.23059 -10.114592,0.0525 z m 13.629078,-22.41735 c -1.03603,-1.67633 3.24197,-6.82858 4.84651,-5.83693 C 109.39166,113.52676 106.7772,120 105.198,120 c -0.57234,0 -1.43481,-0.63781 -1.91659,-1.41735 z m -22.009191,-2.69684 c -0.81855,-1.52948 -1.110882,-3.15826 -0.649627,-3.61951 1.25006,-1.25006 5.313564,1.69513 5.808508,4.20995 0.625859,3.18 -3.386787,2.72074 -5.158881,-0.59044 z m 9.519661,-6.41151 c -4.892929,-3.76169 -2.914874,-6.80763 4.420919,-6.80763 7.493061,0 8.974691,2.16284 4.259843,6.21838 -4.327983,3.72278 -4.582431,3.74005 -8.680762,0.58925 z M 64.88889,95.111112 c -3.498204,-3.498202 -4.894068,-6.058328 -4.907096,-9 -0.01001,-2.261111 -0.338745,-5.311111 -0.730514,-6.777777 -0.39177,-1.466667 0.159713,-3.855258 1.225517,-5.307978 1.864204,-2.540961 1.913525,-2.514192 1.298216,0.704592 -0.564155,2.951184 0.512448,4.065275 9.126023,9.443791 5.371097,3.353839 10.445109,6.478598 11.275583,6.943908 0.830472,0.465311 3.080472,-0.389353 5,-1.899253 3.399457,-2.674015 4.493461,-2.194856 2.423891,1.061631 C 88.32319,92.289896 74.029511,100 71.580751,100 70.589116,100 67.577779,97.800002 64.88889,95.111112 Z m 47.90463,1.555556 c -2.70157,-1.833333 -5.7211,-3.333333 -6.71008,-3.333333 -0.98897,0 -2.13352,-0.874013 -2.54345,-1.942252 -0.61139,-1.593277 -0.18023,-1.684784 2.3997,-0.509288 2.75481,1.255176 4.40112,0.555945 13.26933,-5.635836 5.56837,-3.88784 10.12432,-7.661415 10.12432,-8.385724 0,-0.724308 -0.99633,-2.417848 -2.21405,-3.76342 -1.21773,-1.345572 -1.76669,-2.892818 -1.21991,-3.438322 1.76538,-1.761264 7.71282,6.471398 6.88984,9.537166 -0.41404,1.542388 -0.761,4.452614 -0.77101,6.467168 C 131.99687,89.955546 123.59871,100 120.03091,100 c -1.27899,0 -4.53582,-1.499998 -7.23739,-3.333332 z M 48.835732,68.333335 c -0.372518,-1.283334 -1.05356,-5.633334 -1.51343,-9.666667 -1.404465,-12.318021 2.787932,-14.768241 13.722474,-8.020011 6.807796,4.201416 6.647557,5.904524 -1.248406,13.268768 -7.68422,7.16676 -9.90311,8.06113 -10.960638,4.41791 z m 82.122998,-4.963182 -7.04128,-7.189363 2.76968,-2.580346 c 5.27532,-4.914714 11.80162,-7.698062 14.33281,-6.11268 4.36193,2.732053 3.68088,23.231192 -0.7683,23.125328 -1.2384,-0.02947 -5.42021,-3.288788 -9.29291,-7.242939 z M 168,112.95415 c 0,-0.94189 -1.8,-2.77581 -4,-4.07539 -3.20806,-1.89505 -4,-3.26854 -4,-6.93741 0,-3.88697 0.80164,-5.080618 5.33334,-7.941348 8.15584,-5.148559 6.57296,-11.675257 -3.32134,-13.694865 -7.3577,-1.501841 -9.22141,-6.445909 -4.72326,-12.529965 2.84052,-3.842014 2.95753,-4.54734 1.25524,-7.565855 -4.14284,-7.346103 -5.84048,-5.373992 -9.79182,11.375004 l -2.26108,9.584322 4.66674,10.614052 c 2.56669,5.837728 5.31892,13.036155 6.11606,15.996515 1.17639,4.36876 2.13458,5.48655 5.08774,5.93518 2.0011,0.304 4.08838,0.64263 4.63838,0.7525 0.55,0.10988 1,-0.57086 1,-1.51274 z m -75.462437,-68.188371 10.537557,-1.432445 1.84319,-5.333333 c 1.01375,-2.933334 1.67185,-6.533334 1.46244,-8 -0.31156,-2.182074 -0.91774,-1.758055 -3.33578,2.333333 -2.38155,4.029645 -3.740046,5 -7.000002,5 -3.942285,0 -5.687618,-1.300147 -10.545908,-7.855932 -2.044803,-2.759262 -2.889449,-3.015023 -6.264596,-1.896935 -3.248144,1.076018 -3.9708,2.118774 -4.317363,6.22974 -0.262582,3.114794 -1.370014,5.533054 -3,6.550996 -3.145688,1.964515 -3.209696,2.822392 -0.418817,5.613271 1.584537,1.584538 3.282472,1.904736 6.333333,1.194351 2.292611,-0.53383 8.910287,-1.6152 14.705946,-2.403046 z M 80.666668,18.648407 c 0,-1.089957 -1.35,-2.173471 -3,-2.407808 -2.918408,-0.41448 -4.164631,2.150325 -2.065019,4.249939 1.553376,1.553376 5.065019,0.276202 5.065019,-1.842131 z M 116,18.587978 c 0,-0.690055 -0.6,-1.254644 -1.33333,-1.254644 -0.73333,0 -1.33333,0.93541 -1.33333,2.078689 0,1.143279 0.6,1.707869 1.33333,1.254644 C 115.4,20.213442 116,19.278032 116,18.587978 Z M 109.33334,18 c 0,-1.1 -0.6,-2 -1.33334,-2 -0.73333,0 -1.33333,0.9 -1.33333,2 0,1.1 0.6,2 1.33333,2 0.73334,0 1.33334,-0.9 1.33334,-2 z M 98.405423,16.360223 c -0.245817,-1.236767 -2.111349,-2.173049 -4.738755,-2.378309 -3.395838,-0.265292 -4.333333,0.176002 -4.333333,2.039777 0,1.836071 1.080405,2.378309 4.738755,2.378309 3.541081,0 4.636288,-0.515533 4.333333,-2.039777 z M 139.9731,155.23723 c -1.56452,-5.58791 -1.4861,-6.31681 0.94072,-8.74363 2.54377,-2.54378 2.8651,-2.56046 8.20018,-0.42578 3.05398,1.22194 5.55267,2.93481 5.55267,3.80636 0,1.95861 -9.57553,11.45916 -11.5496,11.45916 -0.79044,0 -2.20523,-2.74326 -3.14397,-6.09611 z"
     style="fill:#7188a5;stroke-width:1.33333337" />
  <path
     inkscape:connector-curvature="0"
     id="path90"
     d="m 87.00166,175.80166 c -1.153342,-1.15334 -1.058153,-2.44736 0.385378,-5.23884 3.491594,-6.752 11.121873,-6.71491 13.931332,0.0677 0.88283,2.13135 1.21195,4.5114 0.73137,5.28899 -1.17507,1.9013 -13.122489,1.80773 -15.04808,-0.11787 z m -22.668326,-4.76502 c -2.383333,-1.2029 -4.341492,-2.82825 -4.351462,-3.61188 -0.01,-0.78361 3.392045,-4.46698 7.560036,-8.18526 4.661809,-4.15882 7.204083,-7.36579 6.606108,-8.33334 -1.089895,-1.76349 -6.148015,-2.17018 -6.148015,-0.49433 0,0.59317 -0.845809,2.23521 -1.879574,3.64897 -1.844422,2.52239 -1.931705,2.5233 -4.666667,0.0481 C 58.53836,151.47059 57.712464,148 60.000001,148 c 3.27936,0 0.99276,-4.13478 -2.694412,-4.87221 -2.215261,-0.44305 -4.350671,-1.32805 -4.745356,-1.96667 -0.394687,-0.63861 -1.7322,-1.18712 -2.972255,-1.21888 -2.30382,-0.059 -10.96326,-12.256 -13.509977,-19.02904 C 33.326459,113.59543 35.133294,86.569536 38.67957,82.000001 39.248687,81.266668 38.928227,69.866668 37.967437,56.666668 35.928889,28.659691 35.72187,29.373602 48.22527,21.292264 64.765168,10.602013 84.418912,6.321864 104.58019,9.0194159 c 10.27792,1.3751731 21.56148,5.4875861 23.55534,8.5849961 0.76113,1.182402 -5.64207,15.829153 -8.48647,19.41203 -1.89444,2.386287 -4.98239,-0.431221 -4.98239,-4.546036 0,-2.211447 -1.05883,-3.605639 -3.42013,-4.503407 -5.5803,-2.121624 -7.17055,-1.550152 -9.54555,3.430282 -2.020319,4.236646 -2.738659,4.689129 -6.879383,4.333333 -3.545453,-0.304647 -5.138093,-1.329951 -6.83044,-4.39728 -2.37618,-4.306754 -5.002322,-5.371262 -10.096626,-4.092672 -2.632489,0.660712 -3.227873,1.656276 -3.227873,5.397449 0,3.197739 -1.024565,5.537336 -3.382345,7.723592 -3.362974,3.118326 -3.367162,3.150028 -0.731327,5.535426 2.385643,2.158977 3.539309,2.244449 11.524784,0.853839 4.880572,-0.849915 14.503119,-1.440366 21.38344,-1.312114 14.20837,0.264851 15.52466,-0.376716 29.71465,-14.483093 6.77559,-6.735665 7.38384,-7.047445 10.90412,-5.589298 5.13336,2.126309 15.42484,12.510179 20.96849,21.15675 2.53535,3.954432 6.44883,12.054432 8.69663,18 3.73851,9.888623 4.09405,12.230855 4.17089,27.476789 0.0715,14.177578 -0.38449,18.023448 -3.05294,25.751528 -1.72532,4.99667 -4.48488,10.65192 -6.13236,12.56723 l -2.99542,3.48238 -4.20097,-2.99136 C 154.56898,125.85002 156.24595,120 164.63307,120 c 1.69489,0 3.44583,-0.94907 3.89095,-2.10905 1.70382,-4.44008 0.67029,-7.04291 -3.85735,-9.71428 -7.10656,-4.19297 -6.43124,-9.875715 1.66667,-14.024866 7.67181,-3.93083 5.2321,-13.629257 -3.62507,-14.410511 -3.3684,-0.297113 -5.15757,-1.361277 -6.58487,-3.916556 -1.83108,-3.278154 -1.72434,-3.788416 1.62507,-7.768966 4.39385,-5.221802 4.39857,-5.455035 0.202,-9.983221 -4.75551,-5.131274 -6.27097,-3.219156 -9.18177,11.584973 l -2.4489,12.454886 4.64588,10.610463 c 5.9633,13.619188 6.92262,18.961588 4.61015,25.673548 -2.19449,6.36957 -15.04429,21.40676 -19.1878,22.45409 -1.61992,0.40945 -3.66859,1.61596 -4.5526,2.68113 -1.31049,1.57904 -1.06431,2.07867 1.33316,2.70562 3.61189,0.94453 3.12965,2.75598 -1.69003,6.34828 -3.68118,2.74373 -3.68938,2.74385 -5.53712,0.0812 -4.18557,-6.03167 -4.78961,-6.38992 -7.01749,-4.16204 -1.88316,1.88316 -1.84544,2.33714 0.40034,4.8187 2.79594,3.08948 1.85295,4.69951 -3.53084,6.02838 -2.9833,0.73636 -3.8247,0.27949 -5.3513,-2.90566 -2.44471,-5.10077 -5.77548,-4.97354 -5.77548,0.22055 0,3.98488 -0.0322,4.00152 -8.513663,4.40164 l -8.51366,0.40164 0.78954,-3.94771 c 0.550389,-2.75194 0.212832,-4.169 -1.114421,-4.67832 -2.434223,-0.93409 -5.981131,2.57536 -5.981131,5.91799 0,1.83691 -0.929043,2.57143 -3.252438,2.57143 -2.977105,0 -3.231066,0.4797 -3,5.66666 0.229756,5.15752 -0.04705,5.6917 -3.080896,5.9452 -1.833333,0.1532 -5.283333,-0.70565 -7.666667,-1.90856 z m 55.025816,-27.74817 c 18.59556,-5.38877 29.36532,-14.14256 32.82785,-26.68282 1.75926,-6.3715 0.94327,-10.35355 -4.9179,-23.999798 l -4.71366,-10.974516 2.72228,-13.358445 c 3.15627,-15.488057 3.56724,-30.607665 0.92999,-34.214316 -1.71517,-2.345649 -2.09563,-2.286012 -8.84264,1.386179 -3.87771,2.110507 -10.33677,6.920363 -14.3535,10.688568 l -7.30313,6.851283 -6.06613,-1.825635 c -7.76405,-2.336636 -24.781823,-2.252698 -31.541099,0.155571 -5.969788,2.126983 -7.262187,1.635337 -14.10121,-5.36429 -6.307676,-6.455802 -18.379371,-14.3458 -20.628544,-13.48271 -4.272838,1.639641 -4.164267,25.518107 0.18734,41.202996 l 2.128109,7.670536 -4.205065,9.404447 c -5.816834,13.00909 -6.748379,23.12956 -2.866988,31.14745 7.37406,15.23278 28.093439,24.42721 55.569326,24.65945 10.752431,0.0909 15.902111,-0.57678 25.174971,-3.26395 z M 89.619784,141 c -1.589313,-1.92868 -4.551702,-16.82545 -3.639456,-18.3015 1.08485,-1.75532 12.542416,-2.68722 16.154482,-1.31391 2.81688,1.07098 3.32079,1.90851 2.5906,4.30584 -0.49859,1.63693 -1.49719,5.35262 -2.21912,8.25708 -0.72192,2.90447 -1.95464,6.05447 -2.739366,7 -1.822896,2.19645 -8.352589,2.23024 -10.14714,0.0525 z m -7.477131,-24.44238 c -1.521517,-3.96501 -0.810522,-4.97201 1.825907,-2.58607 1.449374,1.31166 2.313963,2.90466 1.921311,3.53998 -1.115385,1.80473 -2.85895,1.36088 -3.747218,-0.95391 z M 104,116.92043 c 0,-1.08265 0.94359,-2.33055 2.09687,-2.7731 1.46224,-0.56112 1.96666,-0.13331 1.66666,1.41353 C 107.21618,118.3831 104,119.54495 104,116.92043 Z M 90.025159,108.0278 c -2.638336,-2.91533 -2.321743,-3.16872 5.692252,-4.5559 4.939809,-0.85506 7.107219,1.7913 4.268499,5.21175 -2.310588,2.78409 -7.135132,2.46642 -9.960751,-0.65585 z M 66.906667,93.896104 c -4.52709,-3.87502 -5.573333,-5.627101 -5.573333,-9.333333 0,-2.509523 0.493824,-4.56277 1.097387,-4.56277 0.603563,0 5.487512,2.808764 10.853222,6.241699 l 9.755836,6.241698 -3.59424,3.091636 c -4.764484,4.098236 -5.979642,3.935528 -12.538872,-1.67893 z m 46.723343,2.694959 c -1.62984,-1.141583 -2.95324,-2.791583 -2.9409,-3.666667 0.0124,-0.875084 4.36234,-4.434494 9.66666,-7.909801 L 130,78.695855 130.43744,82.1757 c 0.77532,6.167584 -0.96726,9.802187 -5.80578,12.109516 C 122.08425,95.499992 120,96.982774 120,97.580284 c 0,1.746422 -3.16633,1.254708 -6.36999,-0.989221 z M 48.835732,68.333335 c -0.372518,-1.283334 -1.05356,-5.633334 -1.51343,-9.666667 -1.404465,-12.318021 2.787932,-14.768241 13.722474,-8.020011 6.807796,4.201416 6.647557,5.904524 -1.248406,13.268768 -7.68422,7.16676 -9.90311,8.06113 -10.960638,4.41791 z m 82.122998,-4.963182 -7.04128,-7.189363 2.76968,-2.580346 c 5.27532,-4.914714 11.80162,-7.698062 14.33281,-6.11268 4.36193,2.732053 3.68088,23.231192 -0.7683,23.125328 -1.2384,-0.02947 -5.42021,-3.288788 -9.29291,-7.242939 z m -14.391,-42.926442 c 1.17489,-3.061729 -0.79559,-4.646865 -6.08861,-4.897924 C 106.85087,15.373692 106,15.828484 106,17.939887 c 0,1.64418 1.23071,2.948891 3.33334,3.53376 5.30824,1.476551 6.32828,1.331329 7.23439,-1.029936 z M 81.092736,18.346955 c -0.463171,-3.246441 -3.334608,-4.379049 -6.287024,-2.479851 -2.843483,1.829126 -0.684215,5.46623 3.245177,5.46623 2.829599,0 3.389491,-0.549683 3.041847,-2.986379 z m 17.316296,-2.038001 c -0.324862,-2.719728 -1.178797,-3.456528 -4.149845,-3.580608 -4.267269,-0.178215 -6.669928,1.983174 -5.524036,4.969324 0.493857,1.28697 2.491695,2.035664 5.432035,2.035664 4.211196,0 4.612208,-0.323731 4.241846,-3.42438 z M 114.66667,169.26967 c 0,-4.08175 5.29665,-10.603 8.61191,-10.603 2.43718,0 9.11666,7.61515 8.10923,9.24519 -1.25627,2.03269 -9.72633,5.42148 -13.55064,5.42148 -2.64493,0 -3.1705,-0.67363 -3.1705,-4.06367 z m 26.61451,-11.54935 c -0.74816,-2.04617 -1.61242,-4.441 -1.92055,-5.32182 -0.30815,-0.88084 0.56739,-2.98084 1.94561,-4.66667 2.42012,-2.96027 2.63456,-2.98844 6.26648,-0.82305 4.66784,2.783 5.39236,5.81485 2.22574,9.31393 -4.69934,5.19269 -7.0172,5.60025 -8.51728,1.49761 z M 38.402051,156.19124 C 26.37776,147.08498 15.38413,128.9073 11.250278,111.29649 6.8274992,92.454819 10.739212,64.641444 19.326556,53.871888 c 2.772186,-3.476652 2.900672,-3.500943 7.081762,-1.338818 4.850116,2.508092 4.695468,2.143624 2.906308,6.849471 -1.170301,3.078124 -0.806121,4.177907 2.709276,8.181724 3.504575,3.99149 3.940081,5.297995 3.176923,9.53066 -1.193938,6.621883 -1.046432,6.479167 -7.732998,7.481881 -7.158477,1.07348 -9.018027,4.220854 -4.532865,7.672086 1.68577,1.297164 3.474606,2.371822 3.975188,2.388128 1.742695,0.05677 2.482647,5.032984 1.235973,8.31198 -0.690317,1.81568 -3.105597,4.06772 -5.367289,5.00454 -3.207823,1.32872 -4.112167,2.52344 -4.112167,5.43251 0,6.31539 1.261331,7.94729 6.142652,7.94729 4.718644,0 9.857348,3.76958 9.857348,7.23103 0,1.04373 -1.546577,3.7357 -3.436837,5.98215 l -3.436838,4.08444 2.860963,4.01786 c 3.21915,4.52088 3.376304,4.56578 9.052576,2.58702 5.040159,-1.757 9.626803,0.24912 9.626803,4.21062 0,3.07605 -3.588315,10.57198 -5.03424,10.51645 -0.531168,-0.0204 -3.184837,-1.71765 -5.897043,-3.77167 z"
     style="fill:#be544e;stroke-width:1.33333337" />
  <path
     inkscape:connector-curvature="0"
     id="path88"
     d="m 87.00166,175.80166 c -1.153342,-1.15334 -1.058153,-2.44736 0.385378,-5.23884 3.491594,-6.752 11.121873,-6.71491 13.931332,0.0677 0.88283,2.13135 1.21195,4.5114 0.73137,5.28899 -1.17507,1.9013 -13.122489,1.80773 -15.04808,-0.11787 z m -22.668326,-4.76502 c -2.383333,-1.2029 -4.341492,-2.82825 -4.351462,-3.61188 -0.01,-0.78361 3.392045,-4.46698 7.560036,-8.18526 9.281973,-8.28048 8.511997,-12.39532 -1.600028,-8.55074 -2.957567,1.12447 -3.285339,1.69247 -1.92354,3.33334 2.375083,2.8618 -0.522323,2.43764 -3.145022,-0.46042 C 58.40971,150.83943 57.963853,148 60.000001,148 c 3.27936,0 0.99276,-4.13478 -2.694412,-4.87221 -2.215261,-0.44305 -4.350671,-1.32805 -4.745356,-1.96667 -0.394687,-0.63861 -1.7322,-1.18712 -2.972255,-1.21888 -2.30382,-0.059 -10.96326,-12.256 -13.509977,-19.02904 C 33.326459,113.59543 35.133294,86.569536 38.67957,82.000001 39.248687,81.266668 38.928227,69.866668 37.967437,56.666668 35.928889,28.659691 35.72187,29.373602 48.22527,21.292264 64.765168,10.602013 84.418912,6.321864 104.58019,9.0194159 c 10.27792,1.3751731 21.56148,5.4875861 23.55534,8.5849961 0.76113,1.182402 -5.64207,15.829153 -8.48647,19.41203 -1.89444,2.386287 -4.98239,-0.431221 -4.98239,-4.546036 0,-2.211447 -1.05883,-3.605639 -3.42013,-4.503407 -5.5803,-2.121624 -7.17055,-1.550152 -9.54555,3.430282 -2.020319,4.236646 -2.738659,4.689129 -6.879383,4.333333 -3.545453,-0.304647 -5.138093,-1.329951 -6.83044,-4.39728 -2.37618,-4.306754 -5.002322,-5.371262 -10.096626,-4.092672 -2.632489,0.660712 -3.227873,1.656276 -3.227873,5.397449 0,3.197739 -1.024565,5.537336 -3.382345,7.723592 -3.362974,3.118326 -3.367162,3.150028 -0.731327,5.535426 2.385643,2.158977 3.539309,2.244449 11.524784,0.853839 4.880572,-0.849915 14.503119,-1.440366 21.38344,-1.312114 14.20837,0.264851 15.52466,-0.376716 29.71465,-14.483093 6.77559,-6.735665 7.38384,-7.047445 10.90412,-5.589298 5.13336,2.126309 15.42484,12.510179 20.96849,21.15675 2.53535,3.954432 6.44883,12.054432 8.69663,18 3.73851,9.888623 4.09405,12.230855 4.17089,27.476789 0.0715,14.177578 -0.38449,18.023448 -3.05294,25.751528 -1.72532,4.99667 -4.48488,10.65192 -6.13236,12.56723 l -2.99542,3.48238 -4.20097,-2.99136 C 154.56898,125.85002 156.24595,120 164.63307,120 c 1.69489,0 3.44583,-0.94907 3.89095,-2.10905 1.70382,-4.44008 0.67029,-7.04291 -3.85735,-9.71428 -7.10656,-4.19297 -6.43124,-9.875715 1.66667,-14.024866 7.67181,-3.93083 5.2321,-13.629257 -3.62507,-14.410511 -3.3684,-0.297113 -5.15757,-1.361277 -6.58487,-3.916556 -1.83108,-3.278154 -1.72434,-3.788416 1.62507,-7.768966 4.39385,-5.221802 4.39857,-5.455035 0.202,-9.983221 -4.75551,-5.131274 -6.27097,-3.219156 -9.18177,11.584973 l -2.4489,12.454886 4.64588,10.610463 c 5.9633,13.619188 6.92262,18.961588 4.61015,25.673548 -2.19449,6.36957 -15.04429,21.40676 -19.1878,22.45409 -1.61992,0.40945 -3.66859,1.61596 -4.5526,2.68113 -1.31049,1.57904 -1.06431,2.07867 1.33316,2.70562 4.42296,1.15662 2.62067,3.70684 -2.95224,4.1774 -3.2152,0.27148 -5.66239,-0.3369 -7.08741,-1.76191 -1.96003,-1.96003 -2.38087,-1.97224 -4.23029,-0.1228 -1.84943,1.84943 -1.81748,2.3148 0.32109,4.67789 3.54042,3.91212 1.51382,5.69623 -3.58287,3.15415 -2.36694,-1.18057 -5.37794,-2.66529 -6.6911,-3.2994 -3.35497,-1.62004 -5.30069,0.008 -4.38224,3.66785 1.04596,4.16746 -0.98552,5.15326 -3.92532,1.90482 -3.057054,-3.37802 -6.826674,-3.36476 -8.947639,0.0315 -2.438331,3.90439 -4.141251,3.2534 -3.242653,-1.23958 0.9506,-4.75299 -0.643954,-5.5023 -7.041494,-3.30887 -5.193757,1.78071 -6.955627,5.29491 -3.149204,6.28136 1.955367,0.50675 1.859317,0.65357 -0.509656,0.77909 -2.563823,0.13584 -2.88838,0.84435 -2.666667,5.82134 0.229756,5.15752 -0.04705,5.69169 -3.080896,5.9452 -1.833333,0.1532 -5.283333,-0.70566 -7.666667,-1.90856 z m 55.025816,-27.74817 c 18.59556,-5.38877 29.36532,-14.14256 32.82785,-26.68282 1.75926,-6.3715 0.94327,-10.35355 -4.9179,-23.999798 l -4.71366,-10.974516 2.72228,-13.358445 c 3.15627,-15.488057 3.56724,-30.607665 0.92999,-34.214316 -1.71517,-2.345649 -2.09563,-2.286012 -8.84264,1.386179 -3.87771,2.110507 -10.33677,6.920363 -14.3535,10.688568 l -7.30313,6.851283 -6.06613,-1.825635 c -7.76405,-2.336636 -24.781823,-2.252698 -31.541099,0.155571 -5.969788,2.126983 -7.262187,1.635337 -14.10121,-5.36429 -6.307676,-6.455802 -18.379371,-14.3458 -20.628544,-13.48271 -4.272838,1.639641 -4.164267,25.518107 0.18734,41.202996 l 2.128109,7.670536 -4.205065,9.404447 c -5.816834,13.00909 -6.748379,23.12956 -2.866988,31.14745 7.37406,15.23278 28.093439,24.42721 55.569326,24.65945 10.752431,0.0909 15.902111,-0.57678 25.174971,-3.26395 z m -17.93206,-17.04193 c -1.828128,-4.80827 -1.814998,-4.9132 0.61476,-4.9132 2.71656,0 3.84213,3.25284 2.16349,6.25234 -1.22092,2.18161 -1.48871,2.05254 -2.77825,-1.33914 z m -15.463116,-0.003 c -0.550992,-1.35574 -0.329251,-3.07844 0.503429,-3.91112 2.249509,-2.24951 3.471891,-0.0935 1.883065,3.3213 -1.286214,2.76441 -1.482945,2.81304 -2.386494,0.58982 z m -3.821321,-9.6861 c -1.521517,-3.96501 -0.810522,-4.972 1.825907,-2.58607 1.449374,1.31167 2.313963,2.90466 1.921311,3.53998 -1.115385,1.80473 -2.85895,1.36088 -3.747218,-0.95391 z M 104,116.92043 c 0,-1.08265 0.94359,-2.33055 2.09687,-2.7731 1.46224,-0.56112 1.96666,-0.13331 1.66666,1.41353 C 107.21618,118.3831 104,119.54495 104,116.92043 Z M 90.025159,108.0278 c -2.638336,-2.91533 -2.321743,-3.16872 5.692252,-4.5559 4.939809,-0.85506 7.107219,1.7913 4.268499,5.21175 -2.310588,2.78409 -7.135132,2.46642 -9.960751,-0.65585 z M 66.906667,93.896104 c -4.52709,-3.87502 -5.573333,-5.627101 -5.573333,-9.333333 0,-2.509523 0.493824,-4.56277 1.097387,-4.56277 0.603563,0 5.487512,2.808764 10.853222,6.241699 l 9.755836,6.241698 -3.59424,3.091636 c -4.764484,4.098236 -5.979642,3.935528 -12.538872,-1.67893 z m 46.723343,2.694959 c -1.62984,-1.141583 -2.95324,-2.791583 -2.9409,-3.666667 0.0124,-0.875084 4.36234,-4.434494 9.66666,-7.909801 L 130,78.695855 130.43744,82.1757 c 0.77532,6.167584 -0.96726,9.802187 -5.80578,12.109516 C 122.08425,95.499992 120,96.982774 120,97.580284 c 0,1.746422 -3.16633,1.254708 -6.36999,-0.989221 z m 2.93772,-76.147352 c 1.17489,-3.061729 -0.79559,-4.646865 -6.08861,-4.897924 C 106.85087,15.373692 106,15.828484 106,17.939887 c 0,1.64418 1.23071,2.948891 3.33334,3.53376 5.30824,1.476551 6.32828,1.331329 7.23439,-1.029936 z M 81.092736,18.346955 c -0.463171,-3.246441 -3.334608,-4.379049 -6.287024,-2.479851 -2.843483,1.829126 -0.684215,5.46623 3.245177,5.46623 2.829599,0 3.389491,-0.549683 3.041847,-2.986379 z m 17.316296,-2.038001 c -0.324862,-2.719728 -1.178797,-3.456528 -4.149845,-3.580608 -4.267269,-0.178215 -6.669928,1.983174 -5.524036,4.969324 0.493857,1.28697 2.491695,2.035664 5.432035,2.035664 4.211196,0 4.612208,-0.323731 4.241846,-3.42438 z M 114.66667,169.26967 c 0,-4.08175 5.29665,-10.603 8.61191,-10.603 2.43718,0 9.11666,7.61515 8.10923,9.24519 -1.25627,2.03269 -9.72633,5.42148 -13.55064,5.42148 -2.64493,0 -3.1705,-0.67363 -3.1705,-4.06367 z m 26.61451,-11.54935 c -0.74816,-2.04617 -1.61242,-4.441 -1.92055,-5.32182 -0.30815,-0.88084 0.56739,-2.98084 1.94561,-4.66667 2.42012,-2.96027 2.63456,-2.98844 6.26648,-0.82305 4.66784,2.783 5.39236,5.81485 2.22574,9.31393 -4.69934,5.19269 -7.0172,5.60025 -8.51728,1.49761 z M 38.402051,156.19124 C 26.37776,147.08498 15.38413,128.9073 11.250278,111.29649 6.8274992,92.454819 10.739212,64.641444 19.326556,53.871888 c 2.772186,-3.476652 2.900672,-3.500943 7.081762,-1.338818 4.850116,2.508092 4.695468,2.143624 2.906308,6.849471 -1.170301,3.078124 -0.806121,4.177907 2.709276,8.181724 3.504575,3.99149 3.940081,5.297995 3.176923,9.53066 -1.193938,6.621883 -1.046432,6.479167 -7.732998,7.481881 -7.158477,1.07348 -9.018027,4.220854 -4.532865,7.672086 1.68577,1.297164 3.474606,2.371822 3.975188,2.388128 1.742695,0.05677 2.482647,5.032984 1.235973,8.31198 -0.690317,1.81568 -3.105597,4.06772 -5.367289,5.00454 -3.207823,1.32872 -4.112167,2.52344 -4.112167,5.43251 0,6.31539 1.261331,7.94729 6.142652,7.94729 4.718644,0 9.857348,3.76958 9.857348,7.23103 0,1.04373 -1.546577,3.7357 -3.436837,5.98215 l -3.436838,4.08444 2.860963,4.01786 c 3.21915,4.52088 3.376304,4.56578 9.052576,2.58702 5.040159,-1.757 9.626803,0.24912 9.626803,4.21062 0,3.07605 -3.588315,10.57198 -5.03424,10.51645 -0.531168,-0.0204 -3.184837,-1.71765 -5.897043,-3.77167 z"
     style="fill:#5b718f;stroke-width:1.33333337" />
  <path
     inkscape:connector-curvature="0"
     id="path86"
     d="m 87.608734,175.1643 c -0.459642,-0.45966 0.05577,-2.55966 1.145352,-4.66667 3.511325,-6.79016 12.579254,-4.32861 12.579254,3.41472 0,1.60669 -1.484682,2.08765 -6.444449,2.08765 -3.544445,0 -6.820516,-0.37606 -7.280157,-0.8357 z m -19.020559,-3.75287 c -2.070988,-1.53787 -2.293182,-2.40377 -1.11193,-4.33333 0.811935,-1.32628 2.461935,-2.60543 3.666667,-2.84252 1.703441,-0.33527 2.190423,0.62813 2.190423,4.33333 0,5.22496 -0.850607,5.73451 -4.74516,2.84252 z M 116,168.03424 c 0,-4.45932 0.59357,-5.60604 3.74551,-7.23597 4.07642,-2.108 4.6882,-1.88044 9.46121,3.51927 l 3.20671,3.62774 -5.87338,2.66475 C 117.56927,174.68006 116,174.29655 116,168.03424 Z M 72.333335,160.4503 c -2.265238,-0.91404 -2.094046,-3.1014 0.463948,-5.92796 3.923193,-4.33508 0.09469,-6.47599 -6.855403,-3.83358 -2.957567,1.12447 -3.285339,1.69247 -1.92354,3.33334 2.375083,2.8618 -0.522323,2.43764 -3.145022,-0.46042 C 58.40971,150.83943 57.963853,148 60.000001,148 c 3.27936,0 0.99276,-4.13478 -2.694412,-4.87221 -2.215261,-0.44305 -4.350671,-1.32805 -4.745356,-1.96667 -0.394687,-0.63861 -1.7322,-1.19449 -2.972255,-1.23528 -2.380048,-0.0783 -12.053729,-13.97271 -13.219943,-18.98796 -0.386802,-1.66344 1.059556,-0.26633 3.334179,3.22064 6.693529,10.26111 15.455171,15.7027 31.994213,19.87064 29.385363,7.4053 64.804653,-1.08724 76.183873,-18.26673 6.65894,-10.05316 6.70261,-15.58868 0.24924,-31.595815 l -5.52568,-13.706062 2.26445,-8.563609 c 2.38496,-9.019342 3.38293,-37.398237 1.38595,-39.411607 -1.77076,-1.785292 -15.14851,6.054605 -23.16644,13.57646 l -7.4782,7.015512 -5.30578,-1.871987 c -7.12848,-2.515077 -26.364981,-2.43933 -32.509496,0.128012 -2.632671,1.1 -4.958333,2 -5.16814,2 -0.209807,0 -3.189317,-2.728918 -6.621135,-6.064264 -8.179009,-7.949087 -20.075364,-15.783221 -22.53437,-14.839613 -4.413376,1.693572 -4.456236,25.131205 -0.07451,40.747548 l 2.293461,8.173836 -3.733119,8.318495 c -2.05321,4.575172 -4.52798,11.021234 -5.499481,14.324584 L 34.690675,110 l 0.48092,-8.74827 c 0.267967,-4.874526 1.672858,-11.442851 3.172732,-14.833564 2.161438,-4.886289 2.468792,-7.234603 1.559919,-11.918394 C 39.281703,71.291565 38.357778,60.169257 37.851077,49.783533 L 36.929802,30.900397 42.129562,26.13679 C 48.612249,20.197866 60.891949,14.074402 72.052703,11.21515 83.415736,8.3040755 110.54752,9.0501592 117,12.451134 c 2.38334,1.256208 4.33334,2.868605 4.33334,3.583106 0,1.696134 -0.18544,1.667358 -5.12068,-0.794665 C 109.85288,12.066896 106,13.108308 106,18 c 0,3.513751 0.60781,4.150148 5,5.235154 6.98719,1.726052 6.34217,3.935566 -0.83472,2.859326 -5.6237,-0.843326 -5.93551,-0.704137 -8.6217,3.848609 -2.184946,3.70321 -3.632305,4.723578 -6.700244,4.723578 -3.083236,0 -4.516942,-1.023157 -6.759369,-4.823786 -2.575987,-4.365973 -3.252839,-4.743898 -7.131702,-3.982039 -5.074261,0.996652 -7.61893,3.968533 -7.61893,8.898036 0,2.228568 -1.133804,4.344991 -3,5.599971 l -3,2.017438 3.01601,3.248168 c 2.995927,3.226538 3.075834,3.235531 12,1.350645 5.954739,-1.25771 13.222935,-1.660853 21.555625,-1.195622 l 12.57164,0.701901 13.28178,-10.005028 c 10.15296,-7.64812 13.98617,-9.828237 16.27191,-9.254555 5.11572,1.283965 17.48566,16.058089 23.26912,27.791634 8.93212,18.121554 11.35102,36.071533 7.38409,54.79491 -2.13308,10.06784 -5.71685,17.30232 -8.87216,17.90997 -1.12435,0.21653 -3.49187,-0.80184 -5.26115,-2.26305 l -3.21686,-2.65675 4.44793,-0.92217 c 2.44636,-0.5072 4.64624,-1.58686 4.88864,-2.39926 2.34084,-7.84562 2.12237,-8.79365 -2.53849,-11.01627 -7.3616,-3.5105 -7.13578,-10.493967 0.46646,-14.425235 3.27935,-1.695816 4.06879,-2.951117 4.06879,-6.469813 0,-5.460959 -2.04013,-7.565761 -7.33333,-7.565761 -2.27334,0 -4.85334,-0.72 -5.73334,-1.6 -2.46692,-2.466916 -1.89649,-8.385042 1.06667,-11.066666 3.47877,-3.148245 3.36327,-5.04931 -0.58277,-9.592315 -2.87039,-3.304616 -3.47138,-3.507712 -5.15192,-1.741019 -1.7268,1.815321 -4.26682,11.370066 -5.89031,22.157571 -0.42823,2.845387 0.75103,7.263975 3.7364,14 5.39637,12.176058 6.54068,22.758028 3.16657,29.282818 -3.51598,6.79918 -14.12933,18.55516 -17.51993,19.40615 -1.64009,0.41164 -3.70527,1.61993 -4.58928,2.6851 -1.31049,1.57904 -1.06431,2.07867 1.33316,2.70562 4.42296,1.15662 2.62067,3.70684 -2.95224,4.1774 -3.2152,0.27148 -5.66239,-0.3369 -7.08741,-1.76191 -1.96003,-1.96003 -2.38087,-1.97224 -4.23029,-0.1228 -1.84943,1.84943 -1.81748,2.3148 0.32109,4.67789 3.54042,3.91212 1.51382,5.69623 -3.58287,3.15415 -2.36694,-1.18057 -5.37794,-2.66529 -6.6911,-3.2994 -3.35497,-1.62004 -5.30069,0.008 -4.38224,3.66785 1.04596,4.16746 -0.98552,5.15326 -3.92532,1.90482 -3.057054,-3.37802 -6.826674,-3.36476 -8.947639,0.0315 -2.438331,3.90439 -4.141251,3.2534 -3.242653,-1.23958 0.9506,-4.75299 -0.643954,-5.5023 -7.041494,-3.30887 -5.193757,1.78071 -6.955627,5.29491 -3.149204,6.28136 1.657517,0.42956 1.369195,0.63984 -0.923885,0.67383 -1.833334,0.0272 -4.083334,-0.25323 -5,-0.62311 z M 81.319243,20.683647 c 2.381166,-2.869131 0.644668,-6.01698 -3.319242,-6.01698 -3.609996,0 -5.465802,2.660973 -4.184498,6 0.986146,2.569856 5.376794,2.579792 7.50374,0.01697 z m 18.014092,-4.01698 c 0,-3.75268 -0.350369,-4.02535 -5.666667,-4.409997 -5.454404,-0.39464 -5.666666,-0.265617 -5.666666,3.444445 0,5.004363 0.686286,5.557793 6.491546,5.234876 4.431024,-0.246476 4.841787,-0.608672 4.841787,-4.269324 z M 141.24654,156.43836 c -1.77599,-4.67118 -1.11411,-7.63229 1.83282,-8.19981 5.5687,-1.07244 8.22066,5.56833 3.81566,9.5548 -3.29911,2.98565 -4.06834,2.80112 -5.64848,-1.35499 z M 32.100405,149.76111 C 22.784824,140.18182 14.460199,124.24746 11.262649,109.87509 7.2015152,91.62107 11.136399,63.481466 18.70828,56.629008 21.096811,54.467418 21.486536,54.460357 24.632503,56.521674 26.619815,57.82381 28,59.986469 28,61.79832 c 0,1.688597 1.500001,4.479355 3.333334,6.201681 1.833333,1.722327 3.333333,4.526916 3.333333,6.232419 0,4.263532 -4.54477,8.434248 -9.190681,8.434248 -6.656935,0 -7.712887,8.108107 -1.475986,11.333334 3.237867,1.674366 4,2.92029 4,6.539148 0,3.72282 -0.677633,4.75135 -4.050956,6.14863 -4.878758,2.02084 -6.744618,5.10208 -5.710376,9.42999 1.040744,4.35511 4.101003,6.5489 9.135486,6.5489 3.12396,0 4.56662,0.80946 5.639547,3.16427 1.202048,2.63821 0.882218,3.95066 -1.923764,7.89437 -3.343769,4.69953 -3.349629,4.75696 -0.907224,8.89161 2.387152,4.04114 2.660724,4.13626 9.454793,3.28739 5.852755,-0.73125 7.138015,-0.5054 7.862107,1.38155 0.912576,2.37813 -3.038872,8.78278 -6.034802,9.78142 -0.938446,0.31283 -5.15243,-2.97496 -9.364406,-7.30617 z m 69.370245,-23.51457 c -1.868967,-4.77008 -1.855839,-4.9132 0.45066,-4.9132 2.79224,0 3.58545,1.98198 2.21859,5.54352 L 102.94129,130 Z m -15.506676,-0.003 c -0.550992,-1.35574 -0.329251,-3.07844 0.503429,-3.91112 2.249509,-2.24951 3.471891,-0.0935 1.883065,3.3213 -1.286214,2.76441 -1.482945,2.81304 -2.386494,0.58982 z m -3.821321,-9.6861 c -1.521517,-3.96501 -0.810522,-4.972 1.825907,-2.58607 1.449374,1.31167 2.313963,2.90466 1.921311,3.53998 -1.115385,1.80473 -2.85895,1.36088 -3.747218,-0.95391 z M 104,116.92043 c 0,-1.08265 0.94359,-2.33055 2.09687,-2.7731 1.46224,-0.56112 1.96666,-0.13331 1.66666,1.41353 C 107.21618,118.3831 104,119.54495 104,116.92043 Z m -69.122806,-2.25376 c 0,-1.83333 0.302631,-2.58333 0.672515,-1.66667 0.369882,0.91667 0.369882,2.41667 0,3.33334 -0.369884,0.91666 -0.672515,0.16666 -0.672515,-1.66667 z m 55.326549,-6.44154 C 87.289394,105.00481 88.56215,104 95.555558,104 c 5.933722,0 7.429912,1.81453 4.177777,5.06667 -2.357237,2.35724 -7.006281,1.94669 -9.529592,-0.84154 z M 70.666668,93.810163 c -1.833333,-1.849096 -4.683333,-3.897981 -6.333334,-4.553076 -3.33829,-1.325395 -4.343161,-7.923752 -1.206714,-7.923752 2.278699,0 18.206715,10.239385 18.206715,11.704256 0,1.837673 -3.077242,4.300531 -5.266667,4.215155 -1.136667,-0.04432 -3.566667,-1.593487 -5.4,-3.442583 z m 41.381812,1.581579 c -0.88626,-1.067876 -1.25168,-2.523608 -0.81204,-3.234959 1.09277,-1.76814 16.7596,-12.156782 18.33331,-12.156782 0.69623,0 1.07786,1.95 0.84806,4.333334 -0.35029,3.633112 -1.38735,4.821701 -6.41781,7.355607 -3.3,1.66225 -6.2,3.61225 -6.44444,4.333333 -0.65641,1.936313 -3.66243,1.592139 -5.50708,-0.630533 z"
     style="fill:#616569;stroke-width:1.33333337" />
  <path
     inkscape:connector-curvature="0"
     id="path84"
     d="m 88.978087,175.20031 c -0.439832,-0.43983 -0.143523,-2.23983 0.658464,-4 C 90.647559,168.98139 92.190064,168 94.666668,168 c 2.476604,0 4.01911,0.98139 5.030118,3.20031 1.840894,4.04032 1.045064,4.79969 -5.030118,4.79969 -2.688889,0 -5.24875,-0.35986 -5.688581,-0.79969 z M 68.000001,170.6842 c -1.548788,-0.98732 -1.666408,-1.80993 -0.521352,-3.64624 1.986176,-3.1852 3.762371,-2.52597 4.276582,1.58726 0.448677,3.589 -0.521063,4.1207 -3.75523,2.05898 z M 116,168.76191 c 0,-3.79048 3.19778,-7.42857 6.52949,-7.42857 1.28645,0 3.71327,1.46284 5.39293,3.25074 l 3.05391,3.25075 -4.98433,2.08259 c -7.27707,3.04056 -9.992,2.7266 -9.992,-1.15551 z m 26.14266,-12.20429 c -2.31348,-6.02884 1.03873,-10.6701 5.20765,-7.21019 2.55523,2.12064 2.5168,4.595 -0.11227,7.224 -2.65526,2.65527 -4.07269,2.65143 -5.09544,-0.0139 z m -105.482071,-3.40848 -4.950239,-4.34636 5.811492,-1.46692 c 3.19632,-0.8068 6.561492,-1.22323 7.478159,-0.9254 2.523087,0.81977 1.995161,6.21229 -0.861254,8.79732 -2.410114,2.18112 -2.758608,2.08518 -7.478158,-2.05864 z m 54.557825,-0.37463 -2.781588,-3.17729 8.781588,-0.83992 c 4.829876,-0.46196 10.956026,-1.16131 13.613676,-1.55411 4.61984,-0.68281 4.80288,-0.56141 4.16724,2.76373 -0.36567,1.91286 -1.04011,3.28358 -1.49875,3.04604 -8.35351,-4.3261 -8.02942,-4.31057 -11.93194,-0.57173 -4.559674,4.36845 -6.755712,4.43916 -10.350226,0.33328 z m -13.838167,-2.02019 c -2.04485,-3.82082 -1.788171,-4.09864 2.953088,-3.19613 5.677089,1.08064 5.953995,1.43804 2.902665,3.74652 -3.411017,2.58059 -4.220841,2.50448 -5.855753,-0.55039 z m 48.108243,-3.25584 c -2.55629,-2.72104 -2.67403,-3.26989 -0.85147,-3.96926 1.4599,-0.56023 2.52634,0.27025 3.44297,2.68117 1.78341,4.69073 0.98018,5.08997 -2.5915,1.28809 z m -61.488489,-0.83181 c 0,-2.79656 1.032119,-3.21021 4.596804,-1.84231 1.930096,0.74064 1.907322,1.00712 -0.224284,2.62426 -3.302652,2.50554 -4.37252,2.31422 -4.37252,-0.78195 z M 24.050632,138.52496 C 21.86928,135.5137 18.13677,128.1637 15.756163,122.19163 11.637048,111.8583 11.425503,110.4631 11.38056,93.333335 11.33096,74.42682 13.332911,64.404454 18.537246,57.504912 c 2.031366,-2.693043 2.80059,-2.929658 5.25458,-1.616323 1.838156,0.983752 2.874841,2.817565 2.874841,5.085365 0,2.033838 1.530788,5.144595 3.588592,7.292479 3.056292,3.190083 3.398796,4.288666 2.309047,7.406292 -1.034824,2.960495 -2.211772,3.738598 -6.153776,4.06838 -5.513182,0.461224 -7.36187,2.110692 -7.762018,6.925563 -0.464589,5.59029 -0.122293,6.284971 3.922348,7.960316 6.956766,2.881586 6.625839,9.005966 -0.674744,12.487366 -3.737153,1.78213 -4.562782,2.9194 -4.562782,6.28507 0,6.54773 2.13782,9.26725 7.285006,9.26725 7.197074,0 11.177702,5.62961 6.642199,9.39375 -3.625355,3.00877 -4.809965,6.37778 -3.260539,9.27292 2.415505,4.51341 0.227358,2.95744 -3.949368,-2.80838 z M 163.63863,126.54418 c -2.78308,-1.62024 -1.84575,-3.87751 1.61013,-3.87751 3.09934,0 4.87667,-2.24166 6.02043,-7.59325 0.83748,-3.9185 0.47581,-4.53428 -4.51271,-7.68339 -7.01888,-4.43082 -7.04298,-7.66735 -0.0898,-12.056695 C 170.94742,92.63102 172,91.180408 172,87.983275 c 0,-5.09243 -4.21049,-9.316607 -9.28642,-9.316607 -6.98891,0 -8.2111,-6.88418 -2.11971,-11.939585 2.92095,-2.424163 2.59353,-4.570293 -1.426,-9.347229 -2.27539,-2.704149 -4.48992,-4.022021 -6.33333,-3.768966 -2.56964,0.35275 -2.8577,-0.296194 -3.08242,-6.944221 -0.13633,-4.033333 -0.54861,-9.283333 -0.91617,-11.666666 -0.36756,-2.383334 -0.16621,-4.333334 0.44743,-4.333334 2.6984,0 15.13014,15.734768 19.32905,24.464642 10.41269,21.64889 11.75107,48.778261 3.29397,66.769971 -2.95608,6.28878 -4.22074,6.99898 -8.26777,4.6429 z m -62.30529,-1.21084 c 0,-0.73334 0.63541,-1.33334 1.41202,-1.33334 0.77661,0 1.0412,0.6 0.58798,1.33334 -0.45323,0.73333 -1.08864,1.33333 -1.41203,1.33333 -0.32339,0 -0.58797,-0.6 -0.58797,-1.33333 z M 93.333335,108 c 0,-0.73333 0.9,-1.33333 2,-1.33333 1.1,0 2,0.6 2,1.33333 0,0.73334 -0.9,1.33334 -2,1.33334 -1.1,0 -2,-0.6 -2,-1.33334 z M 68.612301,91.181014 c -7.419196,-8.099874 -5.5131,-9.668162 4.271334,-3.514346 5.927024,3.72774 7.10688,7.246808 2.713356,8.092924 -1.428046,0.275016 -4.208343,-1.547514 -6.98469,-4.578578 z m 45.531449,3.851625 c -1.86381,-1.863809 -0.47767,-3.906503 4.99845,-7.365971 7.04158,-4.448441 9.18144,-4.625053 8.6172,-0.711224 -0.2476,1.71749 -2.10156,3.762815 -4.42606,4.88293 -2.2,1.060117 -4.98532,2.394854 -6.18959,2.966084 -1.20427,0.571228 -2.55427,0.673909 -3,0.228181 z M 59.183341,38.492107 C 56.332504,36.196098 51.127666,32.968227 47.617036,31.319061 L 41.23407,28.320575 45.473777,24.753098 C 53.883529,17.676758 68.331381,11.997163 82.909921,10.036576 L 89.153174,9.1969559 87.69182,13.068526 c -2.324122,6.157301 -0.705697,8.264808 6.346822,8.264808 h 6.122338 l -0.413825,-5 c -0.377297,-4.558708 -0.825693,-5.072768 -5.080487,-5.824479 l -4.666666,-0.8244782 5.333333,-0.098683 c 2.933333,-0.054275 7.693165,0.3203889 10.577405,0.8325872 l 5.24406,0.931269 -3.5774,1.629973 c -3.79692,1.729996 -4.44875,4.234316 -2.19715,8.441465 0.9347,1.7465 0.94009,2.579012 0.0167,2.579012 -0.74993,0 -2.87857,2.4 -4.7303,5.333334 -4.389347,6.953173 -7.625876,6.929063 -12.056699,-0.08981 -3.149109,-4.988514 -3.764889,-5.350182 -7.683392,-4.512705 -5.878108,1.256292 -7.593244,2.949487 -7.593244,7.49611 0,3.558045 -5.280947,10.439741 -8.011358,10.439741 -0.525413,0 -3.2878,-1.878552 -6.138636,-4.17456 z M 80.538455,22.25863 c 3.399657,-2.485891 2.352872,-8.132275 -1.611843,-8.694315 -5.630847,-0.798231 -9.139852,5.022444 -5.326611,8.835685 2.062084,2.062084 3.978448,2.023039 6.938454,-0.14137 z m 60.794885,7.028567 c 0,-1.816217 1.98638,-2.531681 3.84304,-1.384203 1.251,0.773164 0.9629,1.257237 -1.06367,1.787197 -1.52865,0.399754 -2.77937,0.218406 -2.77937,-0.402994 z M 119.33334,16 c -0.45323,-0.733333 -0.18864,-1.333333 0.58797,-1.333333 0.77661,0 1.41203,0.6 1.41203,1.333333 0,0.733334 -0.26459,1.333334 -0.58798,1.333334 -0.32339,0 -0.9588,-0.6 -1.41202,-1.333334 z"
     style="fill:#24364e;stroke-width:1.33333337" />
  <path
     inkscape:connector-curvature="0"
     id="path82"
     d="m 118.66667,167.42319 c 0,-3.80775 4.43526,-5.82837 7.39732,-3.37008 2.72683,2.26307 2.42976,3.29389 -1.46006,5.0662 -4.9088,2.2366 -5.93726,1.9428 -5.93726,-1.69612 z m -25.952878,-14.0136 c -1.381106,-2.23468 0.484446,-4.07625 4.129331,-4.07625 2.4733,0 3.235787,0.61188 2.907689,2.33333 -0.500212,2.62449 -5.696728,3.91156 -7.03702,1.74292 z m -56.713791,-2.74292 c 0,-0.73333 1.23541,-1.33333 2.745356,-1.33333 1.509945,0 2.374536,0.6 1.92131,1.33333 C 40.213442,151.4 38.978033,152 37.921311,152 c -1.056721,0 -1.92131,-0.6 -1.92131,-1.33333 z m 42.666667,0 c 0,-0.73333 0.935411,-1.33333 2.078689,-1.33333 1.143279,0 1.70787,0.6 1.254644,1.33333 C 81.546776,151.4 80.611367,152 79.921312,152 c -0.690055,0 -1.254644,-0.6 -1.254644,-1.33333 z m 32.777262,0.17895 c -0.57436,-0.92934 -0.68421,-2.04978 -0.24411,-2.48988 1.19328,-1.19328 2.49436,0.56173 1.84985,2.49526 -0.45163,1.3549 -0.76569,1.35384 -1.60574,-0.005 z m -46.110595,-4.17895 c 0,-0.73333 0.63541,-1.33333 1.412022,-1.33333 0.776612,0 1.041203,0.6 0.587978,1.33333 C 66.880109,147.4 66.2447,148 65.921312,148 c -0.323388,0 -0.587977,-0.6 -0.587977,-1.33333 z M 21.587618,131.27419 c -1.606523,-3.3067 -2.920951,-6.29614 -2.920951,-6.64319 0,-1.6137 9.380442,-0.39341 11.235452,1.4616 2.315107,2.3151 1.453898,4.99693 -2.857669,8.89884 -2.439044,2.20731 -2.647427,2.06536 -5.456832,-3.71725 z M 13.760242,111.33334 C 12.895041,108.4 11.786132,102.63184 11.296,98.515199 9.7546348,85.56922 15.01502,61.333334 19.366303,61.333334 c 0.958883,0 4.269857,2.355863 7.357721,5.235251 4.616882,4.305175 5.464701,5.831299 4.772234,8.590308 -0.7106,2.831255 -1.725789,3.419019 -6.502495,3.76475 -5.232081,0.378689 -5.783689,0.787272 -7.289257,5.399248 -2.046266,6.268279 -1.29654,8.201061 4.510133,11.627083 5.805424,3.425284 5.450199,6.472176 -1.169097,10.027766 -3.768219,2.02412 -5.01555,3.5879 -5.317598,6.66667 -0.389752,3.97274 -0.413977,3.9566 -1.967702,-1.31107 z M 172.7749,111.00765 c -0.44107,-1.38965 -2.89584,-3.52516 -5.45508,-4.74557 -6.34232,-3.02445 -6.11746,-6.637586 0.68018,-10.928745 5.78848,-3.654111 5.99052,-4.246889 3.95072,-11.591246 -1.25121,-4.504977 -1.86777,-4.99956 -7.23618,-5.804604 -7.31016,-1.096226 -8.61795,-3.83402 -4.08934,-8.560873 C 162.48135,67.439221 164,64.74355 164,63.38623 c 0,-3.638745 -6.39681,-11.386229 -9.40118,-11.386229 -2.31586,0 -2.59882,-0.966116 -2.59882,-8.873318 0,-8.809593 0.0193,-8.855862 2.6855,-6.442981 4.81536,4.357848 11.85728,16.158042 15.88581,26.619996 5.45176,14.157991 7.20613,26.830373 5.4392,39.288902 -1.54536,10.8962 -2.03991,12.1824 -3.23561,8.41505 z M 73.000001,92.506676 c -3.372246,-1.770589 -5.025954,-4.546974 -2.666666,-4.477026 1.614822,0.04788 7.687837,5.060886 6.98008,5.761752 -0.355711,0.352246 -2.296747,-0.22588 -4.313414,-1.284726 z M 121.13889,87.96279 c 1.72639,-1.438339 3.70552,-2.26496 4.39808,-1.836938 1.9762,1.221363 -1.49963,4.546506 -4.70023,4.496458 -2.7942,-0.04369 -2.78967,-0.08357 0.30215,-2.65952 z M 55.050016,33.607078 C 49.760857,30.156518 45.604438,26.733334 45.813527,26 46.330333,24.187435 64.91719,14.666667 67.938955,14.666667 c 1.935088,0 2.604908,1.476341 3.340316,7.362351 1.128746,9.034185 -0.03411,14.900892 -3.299991,16.648739 -3.125402,1.672664 -1.790007,2.196388 -12.929264,-5.070679 z"
     style="fill:#142233;stroke-width:1.33333337" />
</svg>
